<svg width="21" height="26" viewBox="0 0 21 26" fill="none" xmlns="http://www.w3.org/2000/svg">
<path d="M16.2024 11.0011C16.2024 9.40948 15.5701 7.88309 14.4447 6.75767C13.3193 5.63225 11.7929 5 10.2013 5C8.60972 5 7.08333 5.63225 5.95791 6.75767C4.83249 7.88309 4.20024 9.40948 4.20024 11.0011C4.20024 18.0023 1.19971 20.0027 1.19971 20.0027H19.2029C19.2029 20.0027 16.2024 18.0023 16.2024 11.0011Z" stroke="#19154E" stroke-width="2" stroke-linecap="round" stroke-linejoin="round"/>
<path d="M11.9316 24.0034C11.7558 24.3065 11.5034 24.5581 11.1997 24.733C10.896 24.9079 10.5518 25 10.2013 25C9.85087 25 9.50658 24.9079 9.20291 24.733C8.89924 24.5581 8.64685 24.3065 8.47101 24.0034" stroke="#19154E" stroke-width="2" stroke-linecap="round" stroke-linejoin="round"/>
<circle cx="13.5" cy="4.5" r="3.5" fill="#FF3E3E" stroke="white" stroke-width="2"/>
</svg>
