<svg width="32" height="32" viewBox="0 0 32 32" fill="none" xmlns="http://www.w3.org/2000/svg">
<rect width="32" height="32" rx="3" fill="#8B3DFF"/>
<g clip-path="url(#clip0_693_27)">
<path d="M12 24C12 24 11 24 11 23C11 22 12 19 16 19C20 19 21 22 21 23C21 24 20 24 20 24H12ZM16 18.05C16.663 18.05 17.2989 17.7866 17.7678 17.3178C18.2366 16.8489 18.5 16.213 18.5 15.55C18.5 14.8869 18.2366 14.2511 17.7678 13.7822C17.2989 13.3134 16.663 13.05 16 13.05C15.337 13.05 14.7011 13.3134 14.2322 13.7822C13.7634 14.2511 13.5 14.8869 13.5 15.55C13.5 16.213 13.7634 16.8489 14.2322 17.3178C14.7011 17.7866 15.337 18.05 16 18.05Z" fill="white"/>
<path d="M10 9C9.46957 9 8.96086 9.21071 8.58579 9.58579C8.21071 9.96086 8 10.4696 8 11V20.5C8 20.8978 8.15804 21.2794 8.43934 21.5607C8.72064 21.842 9.10218 22 9.5 22H10.153C10.3621 21.2651 10.7255 20.5833 11.219 20H9V11C9 10.7348 9.10536 10.4804 9.29289 10.2929C9.48043 10.1054 9.73478 10 10 10H22C22.2652 10 22.5196 10.1054 22.7071 10.2929C22.8946 10.4804 23 10.7348 23 11V20H20.781C21.335 20.654 21.671 21.373 21.847 22H22.5C22.8978 22 23.2794 21.842 23.5607 21.5607C23.842 21.2794 24 20.8978 24 20.5V11C24 10.4696 23.7893 9.96086 23.4142 9.58579C23.0391 9.21071 22.5304 9 22 9H10Z" fill="white"/>
</g>
<defs>
<clipPath id="clip0_693_27">
<rect width="16" height="16" fill="white" transform="translate(8 8)"/>
</clipPath>
</defs>
</svg>
