<svg width="146" height="34" viewBox="0 0 146 34" fill="none" xmlns="http://www.w3.org/2000/svg">
<path d="M29.523 11.4692H32.621V13.7826H29.523V24.9505H27.1135V13.7826H24.9688V11.4692H27.1135C27.1135 8.65068 28.0403 6.01825 31.7207 6.01825C32.0914 6.01825 32.3032 6.01825 32.621 6.07143V8.0657C32.4621 8.0657 32.1708 8.0391 31.9855 8.0391C29.8143 8.0391 29.5495 9.44838 29.523 11.4692Z" fill="#2C3652"/>
<path d="M48.1636 18.2231C48.1636 22.1053 45.1716 25.2961 41.1204 25.2961C37.0693 25.2961 34.0773 22.1053 34.0773 18.2231C34.0773 14.341 37.0693 11.1501 41.1204 11.1501C45.1716 11.1501 48.1636 14.341 48.1636 18.2231ZM45.7011 18.2231C45.7011 15.4578 43.7682 13.4369 41.1204 13.4369C38.4726 13.4369 36.5662 15.4578 36.5662 18.2231C36.5662 20.9885 38.4726 22.9828 41.1204 22.9828C43.7682 22.9828 45.7011 20.9619 45.7011 18.2231Z" fill="#2C3652"/>
<path d="M57.6957 11.1501V13.8889C53.724 13.4103 53.2209 16.4416 53.2209 18.9145V24.9505H50.8114V11.4692H53.2209V13.8092C54.1212 12.001 55.9746 11.1501 57.6957 11.1501Z" fill="#2C3652"/>
<path d="M72.2586 19.2602H61.588C61.9587 21.4671 63.6003 22.9828 66.2216 22.9828C67.6779 22.9828 69.0018 22.4244 69.7432 21.4671L71.7291 22.7435C70.5375 24.3655 68.5782 25.2961 66.2216 25.2961C61.7733 25.2961 59.0196 22.1053 59.0196 18.2231C59.0196 14.341 61.8792 11.1501 65.8245 11.1501C69.4784 11.1501 72.8941 14.2346 72.2586 19.2602ZM69.8226 17.1861C69.5049 14.8994 68.1016 13.4369 65.8245 13.4369C63.5473 13.4369 61.9587 14.9525 61.588 17.1861H69.8226Z" fill="#2C3652"/>
<path d="M84.465 20.9087C84.465 23.3019 82.7704 25.2961 79.1958 25.2961C76.548 25.2961 74.3239 24.2325 73.7943 22.2117L76.1509 21.414C76.3627 22.1053 77.0776 23.0626 79.2488 23.0626C80.9963 23.0626 81.976 22.3446 81.976 21.1481C81.976 19.5792 79.7254 19.5792 77.8719 19.1538C75.3565 18.5954 74.2709 17.3723 74.2709 15.378C74.2709 12.9051 76.3097 11.1501 79.2223 11.1501C81.3935 11.1501 83.3264 12.2669 83.803 14.2612L81.5524 14.8728C81.3141 14.1282 80.5197 13.3305 79.0105 13.3305C77.6866 13.3305 76.7069 14.0751 76.7069 15.1919C76.7069 16.7075 78.5604 16.8139 80.0961 17.1329C83.3794 17.8243 84.465 18.8879 84.465 20.9087Z" fill="#2C3652"/>
<path d="M97.1215 20.829L99.1868 21.9458C97.9688 23.94 95.8506 25.2961 93.2293 25.2961C89.1781 25.2961 86.1861 22.1053 86.1861 18.2231C86.1861 14.341 89.1781 11.1501 93.2293 11.1501C95.8506 11.1501 97.9688 12.5062 99.1868 14.4739L97.1215 15.6173C96.3272 14.2878 94.9239 13.4369 93.2293 13.4369C90.5814 13.4369 88.6486 15.4578 88.6486 18.2231C88.6486 20.9885 90.5814 22.9828 93.2293 22.9828C94.9239 22.9828 96.3272 22.1585 97.1215 20.829Z" fill="#2C3652"/>
<path d="M108.322 11.1501V13.8889C104.35 13.4103 103.847 16.4416 103.847 18.9145V24.9505H101.437V11.4692H103.847V13.8092C104.747 12.001 106.601 11.1501 108.322 11.1501Z" fill="#2C3652"/>
<path d="M110.811 7.69342C110.811 6.9489 111.42 6.31073 112.188 6.31073C112.955 6.31073 113.564 6.9489 113.564 7.69342C113.564 8.43795 112.955 9.07611 112.188 9.07611C111.42 9.07611 110.811 8.46454 110.811 7.69342ZM110.97 11.4692H113.406V24.9505H110.97V11.4692Z" fill="#2C3652"/>
<path d="M130.828 18.2232C130.828 21.7597 128.313 25.2962 124.129 25.2962C121.799 25.2962 120.263 24.3389 119.257 23.0626V24.9505H116.848V6.33734H119.257V13.3572C120.263 12.1074 121.799 11.1502 124.129 11.1502C128.313 11.1502 130.828 14.6867 130.828 18.2232ZM128.339 18.2232C128.339 15.511 126.671 13.4369 123.891 13.4369C120.952 13.4369 119.257 15.5641 119.257 18.2232C119.257 20.8822 120.952 22.9828 123.891 22.9828C126.671 22.9828 128.339 20.9354 128.339 18.2232Z" fill="#2C3652"/>
<path d="M145.921 19.2602H135.25C135.621 21.4671 137.262 22.9828 139.884 22.9828C141.34 22.9828 142.664 22.4244 143.405 21.4671L145.391 22.7435C144.199 24.3655 142.24 25.2961 139.884 25.2961C135.435 25.2961 132.682 22.1053 132.682 18.2231C132.682 14.341 135.541 11.1501 139.486 11.1501C143.14 11.1501 146.556 14.2346 145.921 19.2602ZM143.485 17.1861C143.167 14.8994 141.763 13.4369 139.486 13.4369C137.209 13.4369 135.621 14.9525 135.25 17.1861H143.485Z" fill="#2C3652"/>
<path d="M0 9.71429L17.555 0V7.9682L0 17.7445V9.71429Z" fill="#8B3DFF"/>
<path d="M6.69012 34V25.7482L17.555 19.9072V11.9833L0 21.7596V30.2951L6.69012 34Z" fill="#8B3DFF"/>
</svg>
